<svg xmlns="http://www.w3.org/2000/svg" viewBox="0 0 800 600" fill="none">
  <!-- LEFT SIDE - 3 short lavender plants with real leaves and visible flowers -->

  <!-- Plant 1 - Far left edge -->
  <g opacity="0.7">
    <path d="M40 600 Q44 540 38 470 Q32 400 40 340 Q44 310 38 270" stroke="#7b7f6d" stroke-width="1.8" fill="none" stroke-linecap="round"/>
    <path d="M38 530 Q20 512 4 492 Q18 500 32 512 Q38 520 38 530Z" fill="#b7c99c" opacity="0.8"/>
    <path d="M40 530 Q58 510 74 492 Q60 502 46 514 Q40 522 40 530Z" fill="#a8bd8e" opacity="0.7"/>
    <path d="M37 420 Q20 402 4 384 Q18 390 32 402 Q37 410 37 420Z" fill="#b7c99c" opacity="0.75"/>
    <path d="M39 420 Q56 400 72 382 Q58 392 44 404 Q39 412 39 420Z" fill="#a8bd8e" opacity="0.65"/>
    <path d="M39 340 Q24 324 10 308 Q22 314 34 324 Q39 332 39 340Z" fill="#b7c99c" opacity="0.7"/>
    <path d="M41 340 Q56 322 70 306 Q56 316 44 326 Q41 334 41 340Z" fill="#a8bd8e" opacity="0.6"/>
    <!-- Flower cluster -->
    <ellipse cx="35" cy="262" rx="6" ry="4.5" fill="#cbb2ec" opacity="0.8"/>
    <ellipse cx="46" cy="258" rx="5.5" ry="4" fill="#b5a4d6" opacity="0.7"/>
    <ellipse cx="30" cy="254" rx="5" ry="3.5" fill="#cbb2ec" opacity="0.65"/>
    <ellipse cx="42" cy="248" rx="5.5" ry="4" fill="#9D7FB8" opacity="0.7"/>
    <ellipse cx="36" cy="242" rx="4.5" ry="3.5" fill="#cbb2ec" opacity="0.75"/>
    <ellipse cx="48" cy="244" rx="4" ry="3" fill="#b5a4d6" opacity="0.6"/>
    <ellipse cx="32" cy="236" rx="4" ry="3" fill="#9D7FB8" opacity="0.5"/>
    <ellipse cx="42" cy="232" rx="4.5" ry="3" fill="#cbb2ec" opacity="0.6"/>
  </g>

  <!-- Plant 2 - Left inner -->
  <g opacity="0.6">
    <path d="M-20 600 Q-14 530 -18 460 Q-22 390 -14 330 Q-10 300 -16 260" stroke="#7b7f6d" stroke-width="1.6" fill="none" stroke-linecap="round"/>
    <path d="M-18 500 Q-36 482 -50 464 Q-36 470 -22 482 Q-18 490 -18 500Z" fill="#b7c99c" opacity="0.75"/>
    <path d="M-16 500 Q2 480 18 462 Q4 472 -10 484 Q-16 492 -16 500Z" fill="#a8bd8e" opacity="0.65"/>
    <path d="M-18 400 Q-34 384 -48 368 Q-34 374 -22 384 Q-18 392 -18 400Z" fill="#b7c99c" opacity="0.7"/>
    <path d="M-16 400 Q2 382 16 366 Q4 374 -8 386 Q-16 394 -16 400Z" fill="#a8bd8e" opacity="0.6"/>
    <!-- Flower cluster -->
    <ellipse cx="-22" cy="252" rx="5.5" ry="4" fill="#cbb2ec" opacity="0.7"/>
    <ellipse cx="-10" cy="248" rx="5" ry="3.5" fill="#9D7FB8" opacity="0.6"/>
    <ellipse cx="-26" cy="242" rx="4.5" ry="3.5" fill="#b5a4d6" opacity="0.65"/>
    <ellipse cx="-14" cy="238" rx="5" ry="3.5" fill="#cbb2ec" opacity="0.6"/>
    <ellipse cx="-20" cy="232" rx="4" ry="3" fill="#9D7FB8" opacity="0.5"/>
    <ellipse cx="-8" cy="234" rx="3.5" ry="3" fill="#b5a4d6" opacity="0.5"/>
  </g>

  <!-- Plant 3 - Left mid -->
  <g opacity="0.5">
    <path d="M100 600 Q104 550 98 490 Q92 430 100 370 Q104 340 98 300" stroke="#7b7f6d" stroke-width="1.5" fill="none" stroke-linecap="round"/>
    <path d="M98 520 Q82 504 68 488 Q80 494 92 504 Q98 512 98 520Z" fill="#b7c99c" opacity="0.7"/>
    <path d="M100 520 Q116 504 130 488 Q116 496 104 506 Q100 514 100 520Z" fill="#a8bd8e" opacity="0.6"/>
    <path d="M98 430 Q82 414 68 400 Q80 406 92 414 Q98 422 98 430Z" fill="#b7c99c" opacity="0.65"/>
    <path d="M100 430 Q116 414 130 398 Q116 406 104 416 Q100 424 100 430Z" fill="#a8bd8e" opacity="0.55"/>
    <!-- Flower cluster -->
    <ellipse cx="96" cy="292" rx="5" ry="3.5" fill="#cbb2ec" opacity="0.6"/>
    <ellipse cx="106" cy="288" rx="4.5" ry="3.5" fill="#9D7FB8" opacity="0.5"/>
    <ellipse cx="92" cy="282" rx="4.5" ry="3" fill="#b5a4d6" opacity="0.55"/>
    <ellipse cx="102" cy="278" rx="4" ry="3" fill="#cbb2ec" opacity="0.5"/>
    <ellipse cx="96" cy="272" rx="4" ry="2.5" fill="#9D7FB8" opacity="0.4"/>
  </g>

  <!-- RIGHT SIDE - 3 short lavender plants mirrored -->

  <!-- Plant 4 - Far right edge -->
  <g opacity="0.7">
    <path d="M760 600 Q756 540 762 470 Q768 400 760 340 Q756 310 762 270" stroke="#7b7f6d" stroke-width="1.8" fill="none" stroke-linecap="round"/>
    <path d="M762 530 Q780 512 796 492 Q782 500 768 512 Q762 520 762 530Z" fill="#b7c99c" opacity="0.8"/>
    <path d="M760 530 Q742 510 726 492 Q740 502 754 514 Q760 522 760 530Z" fill="#a8bd8e" opacity="0.7"/>
    <path d="M763 420 Q780 402 796 384 Q782 390 768 402 Q763 410 763 420Z" fill="#b7c99c" opacity="0.75"/>
    <path d="M761 420 Q744 400 728 382 Q742 392 756 404 Q761 412 761 420Z" fill="#a8bd8e" opacity="0.65"/>
    <path d="M761 340 Q776 324 790 308 Q778 314 766 324 Q761 332 761 340Z" fill="#b7c99c" opacity="0.7"/>
    <path d="M759 340 Q744 322 730 306 Q744 316 756 326 Q759 334 759 340Z" fill="#a8bd8e" opacity="0.6"/>
    <!-- Flower cluster -->
    <ellipse cx="765" cy="262" rx="6" ry="4.5" fill="#cbb2ec" opacity="0.8"/>
    <ellipse cx="754" cy="258" rx="5.5" ry="4" fill="#b5a4d6" opacity="0.7"/>
    <ellipse cx="770" cy="254" rx="5" ry="3.5" fill="#cbb2ec" opacity="0.65"/>
    <ellipse cx="758" cy="248" rx="5.5" ry="4" fill="#9D7FB8" opacity="0.7"/>
    <ellipse cx="764" cy="242" rx="4.5" ry="3.5" fill="#cbb2ec" opacity="0.75"/>
    <ellipse cx="752" cy="244" rx="4" ry="3" fill="#b5a4d6" opacity="0.6"/>
    <ellipse cx="768" cy="236" rx="4" ry="3" fill="#9D7FB8" opacity="0.5"/>
    <ellipse cx="758" cy="232" rx="4.5" ry="3" fill="#cbb2ec" opacity="0.6"/>
  </g>

  <!-- Plant 5 - Right inner -->
  <g opacity="0.6">
    <path d="M820 600 Q814 530 818 460 Q822 390 814 330 Q810 300 816 260" stroke="#7b7f6d" stroke-width="1.6" fill="none" stroke-linecap="round"/>
    <path d="M818 500 Q836 482 850 464 Q836 470 822 482 Q818 490 818 500Z" fill="#b7c99c" opacity="0.75"/>
    <path d="M816 500 Q798 480 782 462 Q796 472 810 484 Q816 492 816 500Z" fill="#a8bd8e" opacity="0.65"/>
    <path d="M818 400 Q834 384 848 368 Q834 374 822 384 Q818 392 818 400Z" fill="#b7c99c" opacity="0.7"/>
    <path d="M816 400 Q798 382 784 366 Q796 374 808 386 Q816 394 816 400Z" fill="#a8bd8e" opacity="0.6"/>
    <!-- Flower cluster -->
    <ellipse cx="822" cy="252" rx="5.5" ry="4" fill="#cbb2ec" opacity="0.7"/>
    <ellipse cx="810" cy="248" rx="5" ry="3.5" fill="#9D7FB8" opacity="0.6"/>
    <ellipse cx="826" cy="242" rx="4.5" ry="3.5" fill="#b5a4d6" opacity="0.65"/>
    <ellipse cx="814" cy="238" rx="5" ry="3.5" fill="#cbb2ec" opacity="0.6"/>
    <ellipse cx="820" cy="232" rx="4" ry="3" fill="#9D7FB8" opacity="0.5"/>
    <ellipse cx="808" cy="234" rx="3.5" ry="3" fill="#b5a4d6" opacity="0.5"/>
  </g>

  <!-- Plant 6 - Right mid -->
  <g opacity="0.5">
    <path d="M700 600 Q696 550 702 490 Q708 430 700 370 Q696 340 702 300" stroke="#7b7f6d" stroke-width="1.5" fill="none" stroke-linecap="round"/>
    <path d="M702 520 Q718 504 732 488 Q720 494 708 504 Q702 512 702 520Z" fill="#b7c99c" opacity="0.7"/>
    <path d="M700 520 Q684 504 670 488 Q684 496 696 506 Q700 514 700 520Z" fill="#a8bd8e" opacity="0.6"/>
    <path d="M702 430 Q718 414 732 400 Q720 406 708 414 Q702 422 702 430Z" fill="#b7c99c" opacity="0.65"/>
    <path d="M700 430 Q684 414 670 398 Q684 406 696 416 Q700 424 700 430Z" fill="#a8bd8e" opacity="0.55"/>
    <!-- Flower cluster -->
    <ellipse cx="704" cy="292" rx="5" ry="3.5" fill="#cbb2ec" opacity="0.6"/>
    <ellipse cx="694" cy="288" rx="4.5" ry="3.5" fill="#9D7FB8" opacity="0.5"/>
    <ellipse cx="708" cy="282" rx="4.5" ry="3" fill="#b5a4d6" opacity="0.55"/>
    <ellipse cx="698" cy="278" rx="4" ry="3" fill="#cbb2ec" opacity="0.5"/>
    <ellipse cx="704" cy="272" rx="4" ry="2.5" fill="#9D7FB8" opacity="0.4"/>
  </g>
</svg>
